<?xml version="1.0" encoding="UTF-8"?>
<svg version="1.1" xmlns="http://www.w3.org/2000/svg" width="512" height="512">
<path d="M0 0 C0.68368652 0.21043945 1.36737305 0.42087891 2.07177734 0.63769531 C7.07549451 2.17821074 12.04063044 3.8229012 17 5.5 C17.77113129 5.75911163 18.54226257 6.01822327 19.33676147 6.28518677 C69.46203776 23.14914872 117.66350918 44.48952874 165 68 C166.03583221 68.51358063 166.03583221 68.51358063 167.09259033 69.03753662 C171.20131691 71.07708265 175.3011535 73.13305904 179.39001465 75.2121582 C180.65627064 75.85457266 181.92438333 76.49334244 183.19445801 77.12817383 C184.94415218 78.00472056 186.68518634 78.89848944 188.42578125 79.79296875 C189.40973877 80.2933667 190.39369629 80.79376465 191.4074707 81.30932617 C195.52215489 83.99264739 197.64416597 86.67660024 198.91796875 91.4140625 C199.32826672 109.34994525 176.38201613 131.24483003 164.7421875 143.44140625 C158.22769936 150.14557133 151.40231268 156.27585137 144 162 C143.21109375 162.62132812 142.4221875 163.24265625 141.609375 163.8828125 C136.28575581 168 136.28575581 168 134 168 C133.99120064 166.98641922 133.99120064 166.98641922 133.98222351 165.95236206 C133.91822915 158.91165192 133.8337932 151.8713963 133.73754883 144.83105469 C133.70431962 142.20448809 133.6762815 139.57785043 133.65356445 136.95117188 C133.61998272 133.17286939 133.56766247 129.39521695 133.51171875 125.6171875 C133.50213387 123.85905228 133.50213387 123.85905228 133.49235535 122.06539917 C133.36666915 114.11344152 133.36666915 114.11344152 130 107 C126.99944489 104.47000038 123.4655796 102.82514662 120 101 C118.92234375 100.39285156 117.8446875 99.78570312 116.734375 99.16015625 C65.54850557 71.17489951 -3.15537616 68.08350769 -60 75 C-61.02593262 75.12358887 -62.05186523 75.24717773 -63.10888672 75.37451172 C-93.81033527 79.23971774 -137.04960849 85.98869927 -161 108 C-163.01696276 111.2386656 -163.26773607 113.81246923 -163.31884766 117.59472656 C-163.33871735 118.71558655 -163.35858704 119.83644653 -163.37905884 120.99127197 C-163.39061005 122.19555847 -163.40216125 123.39984497 -163.4140625 124.640625 C-163.43342865 125.87794373 -163.4527948 127.11526245 -163.4727478 128.39007568 C-163.52237989 131.67138571 -163.56366067 134.95266112 -163.60089111 138.23413086 C-163.64097656 141.58588276 -163.69221225 144.93744345 -163.7421875 148.2890625 C-163.83824493 154.85926609 -163.92329277 161.42954355 -164 168 C-178.75754315 162.42417574 -191.0445509 147.12486326 -202 136 C-200.75363754 144.52643326 -198.91669007 152.81304417 -196.77200317 161.15606689 C-195.87294818 164.65483889 -194.99070831 168.15786854 -194.10546875 171.66015625 C-193.92753281 172.36219177 -193.74959686 173.06422729 -193.56626892 173.78753662 C-191.85276192 180.55571043 -190.19496391 187.33682374 -188.5625 194.125 C-188.3159668 195.14231201 -188.06943359 196.15962402 -187.81542969 197.20776367 C-187.58887695 198.15240479 -187.36232422 199.0970459 -187.12890625 200.0703125 C-186.81663086 201.36606201 -186.81663086 201.36606201 -186.49804688 202.68798828 C-186 205 -186 205 -185.62890625 208.5 C-185.23080981 211.1536649 -185.23080981 211.1536649 -182.9609375 212.6171875 C-182.10757813 213.03226563 -181.25421875 213.44734375 -180.375 213.875 C-172.17277409 218.40965918 -167.51864553 224.11905037 -164.66015625 233.078125 C-162.58299751 242.27170333 -163.7755136 250.59341335 -168 259 C-168.804375 259.86625 -169.60875 260.7325 -170.4375 261.625 C-171.2109375 262.800625 -171.2109375 262.800625 -172 264 C-171.64853842 265.8837269 -171.64853842 265.8837269 -170.81640625 267.93359375 C-165.3116519 283.2602556 -161.07161039 298.84143896 -159 315 C-158.86980469 315.91652344 -158.73960937 316.83304687 -158.60546875 317.77734375 C-157.84012853 324.23681524 -157.86927672 330.75304521 -157.8125 337.25 C-157.79936768 338.1977832 -157.78623535 339.14556641 -157.77270508 340.12207031 C-157.75849667 352.51617199 -157.75849667 352.51617199 -162.3125 357.5625 C-173.7866173 366.05559663 -187.00663316 369.06998265 -201 368 C-210.27356944 366.41519775 -220.15459206 362.63148894 -227 356 C-229.72707554 351.54538647 -228.95295985 347.94976194 -228 343 C-227.21767068 340.03355673 -226.24848157 337.14980234 -225.25 334.25 C-220.58409222 319.99705476 -217.16667524 305.68703191 -215.1875 290.8125 C-215.0635083 289.88083008 -214.9395166 288.94916016 -214.81176758 287.98925781 C-212.89133846 277.32417063 -212.89133846 277.32417063 -215.79296875 267.625 C-216.58316406 267.08875 -217.37335938 266.5525 -218.1875 266 C-224.5461547 261.06328068 -227.75621764 254.93533146 -229 247 C-229.90565722 236.63719144 -227.74648584 228.0978604 -221.04296875 220.05078125 C-217.76998015 216.76527644 -214.11595088 214.13761196 -210 212 C-209.34 212 -208.68 212 -208 212 C-208.20568604 211.17725586 -208.41137207 210.35451172 -208.62329102 209.50683594 C-208.91389404 208.34442383 -209.20449707 207.18201172 -209.50390625 205.984375 C-209.66251633 205.35025192 -209.8211264 204.71612885 -209.98454285 204.06278992 C-210.87637969 200.49676369 -211.76692009 196.93042112 -212.65527344 193.36352539 C-214.39455324 186.38530747 -216.1453326 179.41104828 -217.94921875 172.44921875 C-224.32531934 147.73077115 -228.92018744 123.0330925 -229.3125 97.4375 C-229.33022461 96.75316895 -229.34794922 96.06883789 -229.36621094 95.36376953 C-229.35961697 91.01944078 -228.81321135 88.33479294 -226 85 C-219.69946771 80.1363604 -212.11260174 76.81112243 -205.0625 73.1875 C-204.43939941 72.86630188 -203.81629883 72.54510376 -203.17431641 72.21417236 C-151.76601992 45.7434376 -98.85311937 22.91183556 -44 4.5625 C-43.23041962 4.30465729 -42.46083923 4.04681458 -41.66793823 3.78115845 C-38.047807 2.57147038 -34.42391681 1.37956866 -30.78515625 0.22705078 C-28.52268158 -0.5063856 -26.27297649 -1.28494398 -24.05859375 -2.15283203 C-15.55036476 -5.21978864 -8.2507642 -2.62515656 0 0 Z " fill="#000000" transform="translate(271,46)"/>
<path d="M0 0 C0.74121094 0.05285156 1.48242188 0.10570312 2.24609375 0.16015625 C6.00478358 1.4215041 7.2959002 2.61685204 9.5625 5.9375 C10.17995281 10.38949897 10.03176326 14.76657063 9.875 19.25 C9.85244141 20.46751953 9.82988281 21.68503906 9.80664062 22.93945312 C9.74781952 25.93932929 9.65814264 28.93857196 9.5625 31.9375 C16.4925 31.9375 23.4225 31.9375 30.5625 31.9375 C30.51609375 30.19082031 30.4696875 28.44414062 30.421875 26.64453125 C30.38435402 24.34637127 30.34795421 22.04819279 30.3125 19.75 C30.27898437 18.59951172 30.24546875 17.44902344 30.2109375 16.26367188 C30.19160156 14.59594727 30.19160156 14.59594727 30.171875 12.89453125 C30.1404541 11.36276245 30.1404541 11.36276245 30.10839844 9.80004883 C30.68089841 6.19114446 32.07774862 4.56109832 34.5625 1.9375 C37.83184278 -0.35103994 40.6323152 -0.53412218 44.5625 -0.0625 C48.2203218 1.97743908 50.23196174 3.44169262 52.5625 6.9375 C52.78955078 9.57299805 52.78955078 9.57299805 52.7578125 12.69921875 C52.74814453 14.37661133 52.74814453 14.37661133 52.73828125 16.08789062 C52.71314453 17.83875977 52.71314453 17.83875977 52.6875 19.625 C52.67847656 20.80384766 52.66945313 21.98269531 52.66015625 23.19726562 C52.63656517 26.11076342 52.60069386 29.02415704 52.5625 31.9375 C59.4925 31.9375 66.4225 31.9375 73.5625 31.9375 C73.47548828 29.20919922 73.47548828 29.20919922 73.38671875 26.42578125 C73.33981872 24.03387982 73.29431883 21.64195065 73.25 19.25 C73.1871582 17.45272461 73.1871582 17.45272461 73.12304688 15.61914062 C72.99962291 6.75730008 72.99962291 6.75730008 75.8046875 2.671875 C79.7751696 0.17485793 82.90167495 -0.48919525 87.5625 -0.0625 C91.66879004 1.95331511 93.92248801 3.68756636 95.5625 7.9375 C95.78955078 10.59472656 95.78955078 10.59472656 95.7578125 13.578125 C95.74814453 15.18300781 95.74814453 15.18300781 95.73828125 16.8203125 C95.71314453 18.48707031 95.71314453 18.48707031 95.6875 20.1875 C95.67847656 21.31414062 95.66945313 22.44078125 95.66015625 23.6015625 C95.63660658 26.38042365 95.6037168 29.1588539 95.5625 31.9375 C96.51769531 31.89109375 97.47289062 31.8446875 98.45703125 31.796875 C109.60812319 31.48557832 118.81698064 32.90032311 127.77734375 40.16796875 C133.43209987 45.77323029 137.5159175 52.54942878 137.6015625 60.6171875 C137.58867187 61.71289062 137.57578125 62.80859375 137.5625 63.9375 C138.26334717 63.92178955 138.96419434 63.9060791 139.6862793 63.88989258 C142.87410351 63.82737588 146.06179851 63.78845619 149.25 63.75 C150.35279297 63.72486328 151.45558594 63.69972656 152.59179688 63.67382812 C153.65849609 63.66416016 154.72519531 63.65449219 155.82421875 63.64453125 C156.80350342 63.6288208 157.78278809 63.61311035 158.79174805 63.59692383 C162.74148667 64.08241906 165.25899985 65.92778654 168.34765625 68.3203125 C170.47641568 71.15409515 170.02055687 74.07137065 169.92578125 77.48828125 C169.42093014 80.89195483 168.07568492 82.64606669 165.5625 84.9375 C162.84848706 86.29450647 160.71403684 86.0498861 157.6796875 86.03515625 C155.92978516 86.03032227 155.92978516 86.03032227 154.14453125 86.02539062 C152.92121094 86.01701172 151.69789063 86.00863281 150.4375 86 C149.20644531 85.99548828 147.97539062 85.99097656 146.70703125 85.98632812 C143.65883361 85.97451341 140.61066084 85.9565775 137.5625 85.9375 C137.5625 92.8675 137.5625 99.7975 137.5625 106.9375 C139.29757812 106.89109375 141.03265625 106.8446875 142.8203125 106.796875 C145.10935776 106.75934967 147.39842167 106.72295033 149.6875 106.6875 C150.82960938 106.65398437 151.97171875 106.62046875 153.1484375 106.5859375 C163.77248773 106.46240203 163.77248773 106.46240203 168.5625 110.9375 C170.41976616 114.65203232 170.14751089 118.89329425 169.5625 122.9375 C167.37227082 125.76174288 165.73232793 127.35258603 162.5625 128.9375 C160.6761088 129.022415 158.78671485 129.044693 156.8984375 129.03515625 C155.77695312 129.03193359 154.65546875 129.02871094 153.5 129.02539062 C152.324375 129.01701172 151.14875 129.00863281 149.9375 129 C148.75414062 128.99548828 147.57078125 128.99097656 146.3515625 128.98632812 C143.42185361 128.97451478 140.49217059 128.9565789 137.5625 128.9375 C137.5625 135.8675 137.5625 142.7975 137.5625 149.9375 C139.38136719 149.89109375 141.20023438 149.8446875 143.07421875 149.796875 C145.46612941 149.75935483 147.85805783 149.72295494 150.25 149.6875 C151.44818359 149.65398437 152.64636719 149.62046875 153.88085938 149.5859375 C155.03779297 149.57304687 156.19472656 149.56015625 157.38671875 149.546875 C158.44979248 149.52592773 159.51286621 149.50498047 160.6081543 149.48339844 C164.28340694 150.04830794 165.91521234 151.38256303 168.5625 153.9375 C170.42105282 157.65460563 170.14158439 161.89027281 169.5625 165.9375 C167.03573961 169.28375024 165.52316458 170.61727847 161.5625 171.9375 C159.71639468 172.01989169 157.86744836 172.04493359 156.01953125 172.03515625 C154.94638672 172.03193359 153.87324219 172.02871094 152.76757812 172.02539062 C151.64802734 172.01701172 150.52847656 172.00863281 149.375 172 C148.24384766 171.99548828 147.11269531 171.99097656 145.94726562 171.98632812 C143.15229073 171.97453498 140.3574218 171.9580765 137.5625 171.9375 C137.59472656 172.99066406 137.62695312 174.04382813 137.66015625 175.12890625 C137.46136276 182.88185222 134.02028965 189.49769416 128.7578125 195.11328125 C120.82825756 201.702431 112.34025795 204.09430148 102.25 204 C100.99574219 203.99097656 99.74148438 203.98195313 98.44921875 203.97265625 C97.02029297 203.95525391 97.02029297 203.95525391 95.5625 203.9375 C95.58344727 204.63311035 95.60439453 205.3287207 95.62597656 206.04541016 C95.7094698 209.21762458 95.76126529 212.38960731 95.8125 215.5625 C95.84601563 216.65691406 95.87953125 217.75132812 95.9140625 218.87890625 C95.99048253 225.18355852 96.00743158 229.25944264 91.5625 233.9375 C88.71071964 235.92527562 86.55874974 236.22314989 83.125 235.9375 C82.38378906 235.89625 81.64257812 235.855 80.87890625 235.8125 C77.21978113 234.43030097 75.17334106 232.42140267 73.5625 228.9375 C72.96219457 224.62658682 73.09074321 220.40408523 73.25 216.0625 C73.28383789 214.31453125 73.28383789 214.31453125 73.31835938 212.53125 C73.37707121 209.66611242 73.46674499 206.80163886 73.5625 203.9375 C66.6325 203.9375 59.7025 203.9375 52.5625 203.9375 C52.60890625 205.68417969 52.6553125 207.43085938 52.703125 209.23046875 C52.74064598 211.52862873 52.77704579 213.82680721 52.8125 216.125 C52.84601563 217.27548828 52.87953125 218.42597656 52.9140625 219.61132812 C52.92695313 220.72314453 52.93984375 221.83496094 52.953125 222.98046875 C52.97407227 224.00164795 52.99501953 225.02282715 53.01660156 226.07495117 C52.44410159 229.68385554 51.04725138 231.31390168 48.5625 233.9375 C45.29315722 236.22603994 42.4926848 236.40912218 38.5625 235.9375 C34.9046782 233.89756092 32.89303826 232.43330738 30.5625 228.9375 C30.33544922 226.30200195 30.33544922 226.30200195 30.3671875 223.17578125 C30.37363281 222.05751953 30.38007813 220.93925781 30.38671875 219.78710938 C30.41185547 218.03624023 30.41185547 218.03624023 30.4375 216.25 C30.44652344 215.07115234 30.45554687 213.89230469 30.46484375 212.67773438 C30.48843483 209.76423658 30.52430614 206.85084296 30.5625 203.9375 C23.6325 203.9375 16.7025 203.9375 9.5625 203.9375 C9.62050781 205.75636719 9.67851562 207.57523438 9.73828125 209.44921875 C9.78518128 211.84112018 9.83068117 214.23304935 9.875 216.625 C9.91689453 217.82318359 9.95878906 219.02136719 10.00195312 220.25585938 C10.12537709 229.11769992 10.12537709 229.11769992 7.3203125 233.203125 C3.3498304 235.70014207 0.22332505 236.36419525 -4.4375 235.9375 C-8.54379004 233.92168489 -10.79748801 232.18743364 -12.4375 227.9375 C-12.66455078 225.28027344 -12.66455078 225.28027344 -12.6328125 222.296875 C-12.62636719 221.22695313 -12.61992187 220.15703125 -12.61328125 219.0546875 C-12.58814453 217.38792969 -12.58814453 217.38792969 -12.5625 215.6875 C-12.55347656 214.56085938 -12.54445313 213.43421875 -12.53515625 212.2734375 C-12.51160658 209.49457635 -12.4787168 206.7161461 -12.4375 203.9375 C-13.33210938 203.97230469 -14.22671875 204.00710938 -15.1484375 204.04296875 C-26.98004211 204.30785542 -36.22121971 202.75897925 -45.4375 194.9375 C-51.95295613 188.0663967 -54.64077799 181.34475349 -54.4375 171.9375 C-55.48877075 171.96106567 -55.48877075 171.96106567 -56.5612793 171.98510742 C-59.74910351 172.04762412 -62.93679851 172.08654381 -66.125 172.125 C-67.22779297 172.15013672 -68.33058594 172.17527344 -69.46679688 172.20117188 C-70.53349609 172.21083984 -71.60019531 172.22050781 -72.69921875 172.23046875 C-74.16814575 172.25403442 -74.16814575 172.25403442 -75.66674805 172.27807617 C-79.61648667 171.79258094 -82.13399985 169.94721346 -85.22265625 167.5546875 C-87.35141568 164.72090485 -86.89555687 161.80362935 -86.80078125 158.38671875 C-86.29593014 154.98304517 -84.95068492 153.22893331 -82.4375 150.9375 C-79.72348706 149.58049353 -77.58903684 149.8251139 -74.5546875 149.83984375 C-73.38808594 149.84306641 -72.22148437 149.84628906 -71.01953125 149.84960938 C-69.79621094 149.85798828 -68.57289063 149.86636719 -67.3125 149.875 C-66.08144531 149.87951172 -64.85039062 149.88402344 -63.58203125 149.88867188 C-60.53383361 149.90048659 -57.48566084 149.9184225 -54.4375 149.9375 C-54.4375 143.0075 -54.4375 136.0775 -54.4375 128.9375 C-56.17257813 128.98390625 -57.90765625 129.0303125 -59.6953125 129.078125 C-61.98435776 129.11565033 -64.27342167 129.15204967 -66.5625 129.1875 C-67.70460937 129.22101563 -68.84671875 129.25453125 -70.0234375 129.2890625 C-80.64748773 129.41259797 -80.64748773 129.41259797 -85.4375 124.9375 C-87.29476616 121.22296768 -87.02251089 116.98170575 -86.4375 112.9375 C-84.24727082 110.11325712 -82.60732793 108.52241397 -79.4375 106.9375 C-77.5511088 106.852585 -75.66171485 106.830307 -73.7734375 106.83984375 C-72.09121094 106.84467773 -72.09121094 106.84467773 -70.375 106.84960938 C-69.199375 106.85798828 -68.02375 106.86636719 -66.8125 106.875 C-65.62914062 106.87951172 -64.44578125 106.88402344 -63.2265625 106.88867188 C-60.29685361 106.90048522 -57.36717059 106.9184211 -54.4375 106.9375 C-54.4375 100.0075 -54.4375 93.0775 -54.4375 85.9375 C-57.16580078 86.00710938 -57.16580078 86.00710938 -59.94921875 86.078125 C-62.34112941 86.11564517 -64.73305783 86.15204506 -67.125 86.1875 C-68.32318359 86.22101563 -69.52136719 86.25453125 -70.75585938 86.2890625 C-71.91279297 86.30195313 -73.06972656 86.31484375 -74.26171875 86.328125 C-75.32479248 86.34907227 -76.38786621 86.37001953 -77.4831543 86.39160156 C-81.15840694 85.82669206 -82.79021234 84.49243697 -85.4375 81.9375 C-87.29605282 78.22039437 -87.01658439 73.98472719 -86.4375 69.9375 C-83.91073961 66.59124976 -82.39816458 65.25772153 -78.4375 63.9375 C-76.59139468 63.85510831 -74.74244836 63.83006641 -72.89453125 63.83984375 C-71.82138672 63.84306641 -70.74824219 63.84628906 -69.64257812 63.84960938 C-68.52302734 63.85798828 -67.40347656 63.86636719 -66.25 63.875 C-64.55327148 63.88176758 -64.55327148 63.88176758 -62.82226562 63.88867188 C-60.02729073 63.90046502 -57.2324218 63.9169235 -54.4375 63.9375 C-54.51484375 62.14505859 -54.51484375 62.14505859 -54.59375 60.31640625 C-54.58128164 53.23593674 -51.11090788 47.07048743 -46.57421875 41.75390625 C-38.80372945 34.51286913 -30.11538772 31.74686905 -19.6875 31.875 C-18.99011719 31.87951172 -18.29273438 31.88402344 -17.57421875 31.88867188 C-15.86194197 31.9003998 -14.14970967 31.91833347 -12.4375 31.9375 C-12.4689209 30.89408447 -12.4689209 30.89408447 -12.50097656 29.82958984 C-12.5844698 26.65737542 -12.63626529 23.48539269 -12.6875 20.3125 C-12.72101563 19.21808594 -12.75453125 18.12367188 -12.7890625 16.99609375 C-12.86548253 10.69144148 -12.88243158 6.61555736 -8.4375 1.9375 C-5.56854256 -0.06792966 -3.45048782 -0.32890265 0 0 Z M17.5625 78.9375 C15.79848948 81.83261938 14.58110493 84.92480975 13.3125 88.0625 C12.90773438 89.02720215 12.50296875 89.9919043 12.0859375 90.98583984 C10.86190877 93.91369179 9.65395541 96.84776358 8.44946289 99.78369141 C6.71441297 103.9969065 4.95637366 108.20058417 3.203125 112.40625 C0.16717298 119.69643554 -2.86017171 126.99011483 -5.875 134.2890625 C-6.20481873 135.0871936 -6.53463745 135.88532471 -6.87445068 136.7076416 C-7.47401772 138.16047028 -8.07169814 139.6140798 -8.66699219 141.06866455 C-9.31857781 142.64905905 -9.99098728 144.22084372 -10.66796875 145.79052734 C-11.77485806 148.87872042 -11.34879025 150.81307629 -10.4375 153.9375 C-7.97116817 157.54050696 -7.97116817 157.54050696 -4.4375 159.9375 C-0.43627908 160.31497367 1.85846807 160.34427401 5.375 158.3125 C8.10644429 155.67270096 8.10644429 155.67270096 9.5625 149.9375 C20.1225 149.9375 30.6825 149.9375 41.5625 149.9375 C42.2225 151.9175 42.8825 153.8975 43.5625 155.9375 C46.55424174 158.52127695 48.67508108 159.77110895 52.5625 160.5 C56.79684295 159.7060607 58.67207775 158.09679874 61.5625 154.9375 C63.32369086 148.6567862 61.73423976 144.69729415 59.23046875 138.99609375 C58.48186806 137.21354308 57.73367594 135.43082079 56.98583984 133.64794922 C56.58846619 132.71617859 56.19109253 131.78440796 55.78167725 130.82440186 C54.13960262 126.9361171 52.57261463 123.01937888 51.00466919 119.10073853 C49.39164135 115.07706226 47.75422502 111.06350589 46.1159668 107.05004883 C45.27851578 104.99176128 44.4459433 102.931483 43.61791992 100.86938477 C42.39913147 97.83630939 41.16421715 94.81025331 39.92578125 91.78515625 C39.56108231 90.86750992 39.19638336 89.94986359 38.82063293 89.00440979 C36.72065217 83.92915027 34.76095746 80.50746463 30.5625 76.9375 C30.0675 76.4425 30.0675 76.4425 29.5625 75.9375 C24.50735251 75.5486425 21.52859698 75.71810647 17.5625 78.9375 Z M75.5625 79.9375 C73.82727007 84.19302421 73.30696604 87.80627285 73.2878418 92.38256836 C73.27830978 93.64084946 73.26877777 94.89913055 73.25895691 96.19554138 C73.25921837 97.55614246 73.26015555 98.91674355 73.26171875 100.27734375 C73.25782673 101.68689601 73.25349102 103.0964471 73.24873352 104.5059967 C73.24129186 107.45382497 73.2415477 110.40153342 73.24682617 113.34936523 C73.2526197 117.11302201 73.23568315 120.87618649 73.2124815 124.63976192 C73.19769713 127.54898408 73.19687879 130.45808892 73.19999123 133.367342 C73.19948042 134.75431862 73.19428826 136.14130223 73.18417931 137.52824211 C72.90868075 149.07744871 72.90868075 149.07744871 78.3125 158.875 C81.65935914 160.45546126 83.90231842 160.44235263 87.5625 159.9375 C91.03609452 157.91382105 93.26588941 155.82733176 94.5625 151.9375 C94.66708071 149.77155204 94.7111516 147.60251739 94.72363281 145.43408203 C94.72859772 144.77843262 94.73356262 144.1227832 94.73867798 143.44726562 C94.75327353 141.27993721 94.76009706 139.11268197 94.765625 136.9453125 C94.77137842 135.43700153 94.77713613 133.92869058 94.78289795 132.42037964 C94.79340039 129.25795145 94.79924806 126.09554864 94.80273438 122.93310547 C94.80821881 118.88559551 94.83224863 114.83842199 94.86070633 110.79101753 C94.87935148 107.67515083 94.88453929 104.55936489 94.88607025 101.44344711 C94.88909288 99.95153844 94.89710828 98.45963106 94.91025543 96.96777725 C94.92735658 94.87816171 94.92542641 92.78936462 94.91894531 90.69970703 C94.92259094 89.51184601 94.92623657 88.32398499 94.92999268 87.10012817 C94.42858404 82.78502428 92.79137771 80.2102662 89.8125 77.125 C84.2760361 74.20297739 79.65475023 75.49448546 75.5625 79.9375 Z " fill="#000000" transform="translate(214.4375,234.0625)"/>
<path d="M0 0 C0.84796143 0.29938477 1.69592285 0.59876953 2.56958008 0.90722656 C10.00916153 3.67739921 16.13742404 7.19899756 23.3125 11.0625 C23.3125 32.1825 23.3125 53.3025 23.3125 75.0625 C14.4025 71.7625 5.4925 68.4625 -3.6875 65.0625 C-26.97919417 58.23176277 -50.4824146 53.12761641 -74.6875 51.0625 C-75.80125 50.95164062 -76.915 50.84078125 -78.0625 50.7265625 C-130.80803203 46.20900536 -183.72757239 55.47852896 -232.6875 75.0625 C-232.6875 53.9425 -232.6875 32.8225 -232.6875 11.0625 C-213.77801724 1.60775862 -213.77801724 1.60775862 -207.75 -0.5625 C-206.975354 -0.84262939 -206.20070801 -1.12275879 -205.40258789 -1.41137695 C-142.18373106 -23.41052197 -62.87640615 -22.36233368 0 0 Z " fill="#000000" transform="translate(360.6875,153.9375)"/>
<path d="M0 0 C4.56560941 4.56560941 5.78773178 9.96110566 8 16 C3.38 16 -1.24 16 -6 16 C-4.02 10.72 -2.04 5.44 0 0 Z " fill="#000000" transform="translate(239,347)"/>
</svg>
